<svg xmlns="http://www.w3.org/2000/svg" width="170" height="80" viewBox="0 0 170 80" fill="none"><path d="M166.638 49.4551H3.52246V61.253H166.638V49.4551Z" fill="white"></path><path d="M50.6475 57.1607L51.3281 56.3265C51.7685 56.7237 52.3291 56.9621 52.9296 56.9621C53.4101 56.9621 53.6904 56.7634 53.6904 56.4457C53.6904 56.1676 53.4902 56.0087 52.6093 55.7704C51.5283 55.4923 50.8477 55.2142 50.8477 54.1417C50.8477 53.1883 51.6084 52.5527 52.7294 52.5527C53.4501 52.5527 54.1708 52.7911 54.7313 53.228L54.1308 54.102C53.7304 53.7842 53.2499 53.6253 52.7294 53.5855C52.289 53.5855 52.0488 53.7842 52.0488 54.0622C52.0488 54.4197 52.289 54.5389 53.2099 54.7773C54.2909 55.0553 54.8915 55.4526 54.8915 56.3662C54.8915 57.4387 54.0907 57.9949 52.9296 57.9949C52.0888 57.9949 51.2881 57.7168 50.6475 57.1607Z" fill="black"></path><path d="M56.333 52.6328H57.4941V57.9161H56.333V52.6328Z" fill="black"></path><path d="M59.2158 52.6328H60.3769V56.8832H63.0595V57.9558H59.2158V52.6328Z" fill="black"></path><path d="M63.0195 52.6328H64.3008L65.7021 56.3668L67.1034 52.6328H68.3846L66.2226 57.9558H65.1816L63.0195 52.6328Z" fill="black"></path><path d="M69.585 52.6328H73.6288V53.6656H70.7461V54.7382H73.2685V55.771H70.7461V56.8832H73.6288V57.9161H69.5449L69.585 52.6328Z" fill="black"></path><path d="M75.0703 52.6319H77.5126C78.0732 52.5922 78.6337 52.7908 79.0741 53.1881C79.3944 53.5059 79.5546 53.9428 79.5145 54.4195C79.5546 55.1743 79.0741 55.8496 78.3534 56.0482L79.6747 57.9549H78.3134L77.1523 56.2468H76.2314V57.9549H75.0703V52.6319ZM77.4326 55.214C77.9931 55.214 78.3534 54.8962 78.3534 54.4592C78.3534 53.9428 77.9931 53.7045 77.4326 53.7045H76.2715V55.214H77.4326Z" fill="black"></path><path d="M83.6387 52.6328H84.9199L86.3212 54.8573L87.7226 52.6328H89.0038V57.9161H87.8427V54.4601L86.3212 56.7244H86.2812L84.7998 54.4998V57.9558H83.6387V52.6328Z" fill="black"></path><path d="M90.6455 52.6328H94.6894V53.6656H91.8066V54.7382H94.329V55.771H91.8066V56.8832H94.6894V57.9161H90.6055L90.6455 52.6328Z" fill="black"></path><path d="M96.1309 52.6328H97.4121L98.8134 54.8573L100.215 52.6328H101.496V57.9161H100.335V54.4601L98.8134 56.7244H98.7734L97.292 54.4998V57.9558H96.1309V52.6328Z" fill="black"></path><path d="M103.138 52.6329H105.62C106.141 52.5932 106.621 52.7521 107.021 53.1096C107.262 53.3479 107.382 53.6657 107.382 54.0232C107.382 54.4999 107.101 54.9369 106.661 55.1752C107.262 55.4136 107.662 55.7711 107.662 56.4861C107.662 57.4395 106.861 57.9559 105.66 57.9559H103.098L103.138 52.6329ZM105.38 54.778C105.9 54.778 106.221 54.6191 106.221 54.2219C106.221 53.8643 105.94 53.6657 105.46 53.6657H104.299V54.778H105.38ZM105.7 56.9231C106.221 56.9231 106.541 56.7244 106.541 56.3669C106.541 56.0094 106.261 55.7711 105.66 55.7711H104.299V56.9231H105.7Z" fill="black"></path><path d="M109.022 52.6328H113.066V53.6656H110.184V54.7382H112.706V55.771H110.184V56.8832H113.066V57.9161H108.982L109.022 52.6328Z" fill="black"></path><path d="M114.548 52.6319H116.99C117.551 52.5922 118.111 52.7908 118.552 53.1881C118.872 53.5059 119.032 53.9428 118.992 54.4195C119.032 55.1743 118.552 55.8496 117.831 56.0482L119.152 57.9549H117.791L116.63 56.2468H115.709V57.9549H114.548V52.6319ZM116.91 55.214C117.471 55.214 117.831 54.8962 117.831 54.4592C117.831 53.9428 117.471 53.7045 116.91 53.7045H115.749V55.214H116.91Z" fill="black"></path><path d="M42.2791 31.3009C42.9198 31.3009 43.5203 31.1817 44.0809 30.9036C44.6414 30.6256 45.1219 30.2283 45.5222 29.7517L47.2439 31.4995C45.8826 33.009 44.2811 33.7637 42.4393 33.7637C41.5985 33.8035 40.7577 33.6446 39.997 33.3665C39.1962 33.0884 38.5156 32.6118 37.875 32.0556C37.2744 31.4995 36.834 30.8242 36.5137 30.0694C36.1933 29.3147 36.0732 28.5202 36.1133 27.686C36.0732 26.8518 36.2334 26.0574 36.5537 25.3026C36.874 24.5479 37.3545 23.8726 37.915 23.2767C38.5556 22.6808 39.3163 22.2042 40.1571 21.9261C40.9979 21.6083 41.8788 21.4891 42.7596 21.5289C43.6404 21.5686 44.4812 21.8069 45.282 22.1644C46.0828 22.5617 46.7634 23.0781 47.364 23.7534L45.7224 25.6204C45.3621 25.1437 44.8816 24.7465 44.3211 24.4684C43.7606 24.1903 43.16 24.0712 42.5594 24.0712C41.5985 24.0712 40.6776 24.389 39.9569 25.0245C39.5966 25.3423 39.3163 25.7793 39.1161 26.2162C38.9159 26.6532 38.8359 27.1696 38.8759 27.6463C38.8359 28.123 38.9159 28.6394 39.1161 29.0764C39.2763 29.553 39.5566 29.9503 39.9169 30.3078C40.5175 30.9831 41.3983 31.3009 42.2791 31.3009ZM49.3659 33.6446V21.7672H52.0484V31.3009H57.1733V33.6446H49.3659ZM68.8645 32.0159C67.6633 33.1282 66.0618 33.7637 64.3802 33.7637C62.6986 33.7637 61.0971 33.1282 59.8959 32.0159C59.2954 31.4598 58.8549 30.7845 58.5346 30.0297C58.2143 29.275 58.0542 28.4805 58.0942 27.6463C58.0542 26.8518 58.2143 26.0176 58.5346 25.2629C58.8549 24.5081 59.3354 23.8328 59.8959 23.2767C61.0971 22.1644 62.6986 21.5289 64.3802 21.5289C66.0618 21.5289 67.6633 22.1644 68.8645 23.2767C69.465 23.8328 69.9055 24.5081 70.2258 25.2629C70.5461 26.0176 70.7062 26.8121 70.6662 27.6463C70.7062 28.4408 70.5461 29.275 70.2258 30.0297C69.9055 30.7447 69.465 31.42 68.8645 32.0159ZM67.9436 27.6463C67.9436 26.6532 67.5832 25.6601 66.9026 24.9054C66.5823 24.5479 66.1819 24.2698 65.7415 24.0712C65.3011 23.8726 64.8206 23.7931 64.3402 23.7931C63.8597 23.7931 63.3792 23.9123 62.9388 24.0712C62.4984 24.2698 62.098 24.5479 61.7777 24.9054C61.0971 25.6601 60.6967 26.6135 60.7367 27.6463C60.7367 28.6394 61.0971 29.6325 61.7777 30.3872C62.098 30.7447 62.4984 31.0228 62.9388 31.2214C63.3792 31.42 63.8597 31.4995 64.3402 31.4995C64.8206 31.4995 65.3011 31.3803 65.7415 31.2214C66.1819 31.0228 66.5823 30.7447 66.9026 30.3872C67.2629 30.0297 67.5432 29.5928 67.7034 29.1161C67.8635 28.6394 67.9436 28.123 67.9436 27.6463ZM76.1114 30.5859C76.3116 30.8639 76.5918 31.0625 76.9121 31.2214C77.2324 31.3803 77.5928 31.42 77.9131 31.42C78.2734 31.42 78.5937 31.3803 78.914 31.2214C79.2343 31.0625 79.4746 30.8639 79.6748 30.5859C80.1552 29.9503 80.3554 29.1558 80.3154 28.3613V21.8069H82.9979V28.4408C82.9979 30.1489 82.5175 31.4995 81.5565 32.4131C81.0761 32.8898 80.4755 33.2473 79.8749 33.4857C79.2343 33.724 78.5537 33.8432 77.9131 33.8035C77.2324 33.8432 76.5518 33.724 75.9112 33.4857C75.2706 33.2473 74.71 32.8898 74.1895 32.4131C73.2286 31.4995 72.7482 30.1886 72.7482 28.4408V21.8069H75.4307V28.3613C75.3907 29.1558 75.6309 29.9503 76.1114 30.5859ZM94.9693 23.3164C96.0904 24.3492 96.691 25.7793 96.691 27.6463C96.691 29.5133 96.1304 30.9831 95.0494 32.0556C93.9684 33.1282 92.2067 33.6446 89.9646 33.6446H85.8006V21.7672H90.0446C92.2067 21.7672 93.8483 22.2836 94.9693 23.3164ZM93.0475 30.3872C93.6881 29.7914 94.0084 28.8777 94.0084 27.686C94.0084 26.534 93.6881 25.6204 93.0475 24.9848C92.4069 24.389 91.4059 24.0314 90.0046 24.0314H88.5232V31.3009H90.2048C91.2458 31.3803 92.2467 31.0625 93.0475 30.3872ZM111.945 21.7672H114.628V33.6446H111.945L106.22 26.2162V33.6446H103.537V21.7672H106.06L111.945 29.3941V21.7672ZM126.119 33.6446L124.998 31.1023H119.913L118.792 33.6446H115.909L121.114 21.7672H123.717L128.882 33.6446H126.119ZM122.516 25.3026L121.034 28.7586H124.037L122.516 25.3026ZM134.567 24.0712V33.6843H131.925V24.0712H128.521V21.8069H138.01V24.0712H134.567ZM139.932 21.7672H142.615V33.6446H139.932V21.7672ZM149.982 29.3147L153.065 21.7672H155.987L151.183 33.6446H148.941L144.136 21.7672H147.059L149.982 29.3147ZM165.997 21.7672V24.1109H160.031V26.534H165.396V28.7983H160.031V31.3009H166.197V33.6843H157.349V21.8069H165.997V21.7672ZM39.2362 43.7741C39.5966 43.7741 39.9169 43.6947 40.2372 43.5358C40.5575 43.3769 40.8378 43.1385 41.038 42.8605L41.9989 43.8536C41.6786 44.2508 41.2382 44.5686 40.7977 44.8069C40.3173 45.0453 39.8368 45.1644 39.3163 45.1644C38.8359 45.1644 38.3954 45.1247 37.955 44.9261C37.5146 44.7672 37.1142 44.4891 36.7939 44.1713C36.4736 43.8536 36.1933 43.496 36.0332 43.0591C35.873 42.6221 35.793 42.1852 35.793 41.7482C35.793 41.2715 35.873 40.8346 36.0332 40.3976C36.1933 39.9606 36.4736 39.6031 36.7939 39.2456C37.1142 38.9278 37.5146 38.6498 37.955 38.4909C38.3954 38.332 38.8359 38.2525 39.3163 38.2525C39.8368 38.2525 40.3573 38.332 40.8378 38.5703C41.3182 38.7689 41.7586 39.0867 42.079 39.484L41.1581 40.5168C40.9579 40.2387 40.6776 40.0004 40.3974 39.8415C40.077 39.6826 39.7567 39.6031 39.3964 39.6031C38.8759 39.6031 38.3554 39.8017 37.955 40.1593C37.7548 40.3579 37.5947 40.5962 37.4746 40.8346C37.3545 41.0729 37.3144 41.351 37.3545 41.629C37.3545 41.9071 37.3945 42.1852 37.4746 42.4235C37.5546 42.6618 37.7148 42.9002 37.915 43.0988C38.0751 43.2974 38.3154 43.4166 38.5556 43.5358C38.7958 43.6549 38.956 43.7741 39.2362 43.7741ZM48.6852 44.1713C48.0046 44.8069 47.1238 45.1644 46.1628 45.1644C45.6824 45.1644 45.242 45.085 44.8015 44.9261C44.3611 44.7672 43.9607 44.4891 43.6404 44.1713C42.9998 43.5358 42.6395 42.6618 42.6395 41.7482C42.6395 40.8346 42.9998 39.9606 43.6404 39.3251C44.3211 38.6895 45.2019 38.332 46.1628 38.332C46.6433 38.332 47.0837 38.4114 47.5241 38.5703C47.9646 38.7292 48.3649 39.0073 48.6852 39.3251C49.3259 39.9606 49.6862 40.8346 49.6862 41.7482C49.6862 42.6221 49.3259 43.496 48.6852 44.1713ZM48.1648 41.7085C48.1648 41.1523 47.9646 40.5962 47.6042 40.199C47.4441 40.0004 47.2038 39.8415 46.9636 39.7223C46.7234 39.6031 46.4431 39.5634 46.2029 39.5634C45.9226 39.5634 45.6824 39.6031 45.4021 39.7223C45.1619 39.8415 44.9217 40.0004 44.7615 40.199C44.5613 40.3976 44.4012 40.6359 44.3211 40.914C44.241 41.1921 44.201 41.4701 44.201 41.7482C44.201 42.3043 44.4012 42.8605 44.7615 43.2577C44.9217 43.4563 45.1619 43.6152 45.4021 43.7344C45.6423 43.8536 45.9226 43.8933 46.1628 43.8933C46.4431 43.8933 46.6833 43.8536 46.9636 43.7344C47.2038 43.6152 47.4441 43.4563 47.6042 43.2577C48.0046 42.8207 48.2048 42.2646 48.1648 41.7085ZM56.9731 40.8743L55.1714 44.5289H54.2906L52.4889 40.8743V45.085H51.0075V38.4114H53.0094L54.731 42.066L56.4526 38.4114H58.4545V45.085H56.9731V40.8743ZM64.7806 39.047C65.0208 39.2853 65.221 39.5634 65.3411 39.8812C65.4612 40.199 65.5013 40.5565 65.5013 40.8743C65.5013 41.7085 65.261 42.3043 64.7806 42.6618C64.3001 43.0591 63.5794 43.218 62.5785 43.218H61.6976V45.0453H60.2162V38.4114H62.6185C63.5794 38.4511 64.3001 38.6498 64.7806 39.047ZM63.6995 41.629C63.8997 41.3907 63.9798 41.0729 63.9798 40.7551C63.9798 40.5962 63.9798 40.4373 63.8997 40.3181C63.8197 40.1593 63.7396 40.0401 63.6195 39.9606C63.2992 39.762 62.8988 39.6826 62.5384 39.7223H61.6976V41.9468H62.6986C62.8988 41.9468 63.0589 41.9468 63.2191 41.9071C63.3792 41.8674 63.5394 41.7482 63.6995 41.629ZM68.4641 43.3769C68.5842 43.5358 68.7444 43.6549 68.9045 43.7344C69.0647 43.8138 69.2648 43.8536 69.465 43.8536C69.6652 43.8536 69.8654 43.8138 70.0256 43.7344C70.1857 43.6549 70.3459 43.5358 70.466 43.3769C70.7463 43.0194 70.8664 42.5427 70.8263 42.1057V38.4114H72.3077V42.1454C72.3478 42.5427 72.2677 42.9796 72.1476 43.3371C72.0275 43.7344 71.7872 44.0919 71.507 44.37C70.9464 44.8864 70.1857 45.1247 69.425 45.1247C68.6643 45.1247 67.9436 44.8466 67.3831 44.3302C67.1028 44.0124 66.9026 43.6947 66.7424 43.2974C66.6223 42.9002 66.5423 42.5029 66.5823 42.1057V38.3717H68.0637V42.0263C68.0637 42.5029 68.1838 42.9796 68.4641 43.3769ZM76.7119 39.7223V45.085H75.2305V39.7223H73.3487V38.4511H78.6738V39.7223H76.7119ZM79.7548 38.4511H81.2362V45.1247H79.7548V38.4511ZM87.6023 38.4511H89.0837V45.1247H87.6023L84.3993 40.9537V45.1247H82.9178V38.4511H84.3192L87.6423 42.7413V38.4511H87.6023ZM95.1295 41.7085H96.6109V44.0522C96.2505 44.4097 95.8101 44.7275 95.3297 44.9261C94.8492 45.1247 94.3287 45.2042 93.8082 45.2042C92.8873 45.2042 91.9665 44.8864 91.2858 44.2508C90.9655 43.933 90.6852 43.5755 90.5251 43.1385C90.3649 42.7016 90.2849 42.2646 90.2849 41.8276C90.2849 41.3907 90.3649 40.914 90.5251 40.477C90.6852 40.0401 90.9655 39.6826 91.2858 39.3251C91.6061 38.9675 92.0065 38.7292 92.4069 38.5703C92.8473 38.4114 93.2877 38.2922 93.7682 38.2922C94.6891 38.2922 95.6099 38.61 96.2906 39.2456L95.5299 40.3579C95.2896 40.1195 95.0094 39.9209 94.6891 39.8415C94.4488 39.762 94.1686 39.6826 93.8883 39.6826C93.3678 39.6826 92.8473 39.8812 92.4469 40.2387C92.2467 40.4373 92.0866 40.6757 91.9665 40.9537C91.8463 41.2318 91.8063 41.5099 91.8464 41.7879C91.8464 42.3441 92.0465 42.9002 92.4069 43.2974C92.567 43.4563 92.7672 43.6152 93.0075 43.6947C93.2477 43.7741 93.4879 43.8536 93.7281 43.8536C94.1686 43.8933 94.609 43.7741 95.0094 43.5755V41.7085H95.1295ZM105.099 38.4511V39.762H101.976V41.1921H104.939V42.5029H101.976V45.085H100.495V38.4511H105.099ZM112.066 44.1713C111.385 44.8069 110.504 45.1644 109.543 45.1644C109.063 45.1644 108.622 45.085 108.182 44.9261C107.741 44.7672 107.341 44.4891 107.021 44.1713C106.38 43.5358 106.02 42.6618 106.02 41.7482C106.02 40.8346 106.38 39.9606 107.021 39.3251C107.701 38.6895 108.582 38.332 109.543 38.332C110.024 38.332 110.464 38.4114 110.905 38.5703C111.345 38.7292 111.745 39.0073 112.066 39.3251C112.706 39.9606 113.067 40.8346 113.067 41.7482C113.067 42.6221 112.706 43.496 112.066 44.1713ZM111.545 41.7085C111.545 41.1523 111.345 40.5962 110.985 40.199C110.824 40.0004 110.584 39.8415 110.344 39.7223C110.104 39.6031 109.823 39.5634 109.583 39.5634C109.303 39.5634 109.063 39.6031 108.782 39.7223C108.502 39.8415 108.302 40.0004 108.142 40.199C107.942 40.3976 107.782 40.6359 107.701 40.914C107.621 41.1921 107.581 41.4701 107.581 41.7482C107.581 42.3043 107.782 42.8605 108.142 43.2577C108.302 43.4563 108.542 43.6152 108.782 43.7344C109.023 43.8536 109.303 43.8933 109.543 43.8933C109.823 43.8933 110.064 43.8536 110.344 43.7344C110.584 43.6152 110.824 43.4563 110.985 43.2577C111.185 43.0591 111.345 42.8207 111.425 42.5427C111.505 42.2646 111.545 41.9865 111.545 41.7085ZM116.149 43.3769C116.27 43.5358 116.43 43.6549 116.59 43.7344C116.75 43.8138 116.95 43.8536 117.15 43.8536C117.351 43.8536 117.551 43.8138 117.711 43.7344C117.871 43.6549 118.031 43.5358 118.151 43.3769C118.432 43.0194 118.552 42.5427 118.512 42.1057V38.4114H119.993V42.1454C120.033 42.5427 119.953 42.9796 119.833 43.3371C119.713 43.7344 119.473 44.0919 119.192 44.37C118.632 44.8864 117.871 45.1247 117.11 45.1247C116.35 45.1247 115.629 44.8466 115.068 44.3302C114.788 44.0124 114.588 43.6947 114.428 43.2974C114.308 42.9002 114.228 42.5029 114.268 42.1057V38.3717H115.749V42.0263C115.709 42.5029 115.829 42.9796 116.149 43.3769ZM126.279 38.4511H127.761V45.1247H126.279L123.076 40.9537V45.1247H121.595V38.4511H122.996L126.319 42.7413L126.279 38.4511ZM134.567 39.3251C134.887 39.6428 135.168 40.0401 135.328 40.4373C135.488 40.8743 135.568 41.3112 135.528 41.7482C135.568 42.1852 135.488 42.6618 135.328 43.0591C135.168 43.496 134.927 43.8536 134.607 44.1713C134.007 44.7672 133.046 45.085 131.724 45.085H129.442V38.4511H131.804C133.006 38.4511 133.926 38.7292 134.567 39.3251ZM133.446 43.2974C133.646 43.0988 133.766 42.8605 133.886 42.6221C133.966 42.3838 134.047 42.1057 134.007 41.8276C134.007 41.5496 133.966 41.2715 133.886 40.9935C133.806 40.7154 133.646 40.477 133.446 40.2784C133.206 40.0798 132.925 39.9209 132.645 39.8415C132.365 39.762 132.045 39.7223 131.764 39.762H130.924V43.8138H131.884C132.445 43.8138 133.006 43.6152 133.446 43.2974ZM141.414 45.085L140.813 43.6549H137.97L137.37 45.085H135.768L138.691 38.4114H140.132L143.055 45.085H141.414ZM139.412 40.3976L138.571 42.3043H140.252L139.412 40.3976ZM146.178 39.7223V45.085H144.697V39.7223H142.735V38.4511H148.06V39.7223H146.178ZM149.181 38.4511H150.662V45.1247H149.181V38.4511ZM157.949 44.1713C157.269 44.8069 156.388 45.1644 155.427 45.1644C154.946 45.1644 154.506 45.085 154.066 44.9261C153.625 44.7672 153.225 44.4891 152.904 44.1713C152.264 43.5358 151.904 42.6618 151.904 41.7482C151.904 40.8346 152.264 39.9606 152.904 39.3251C153.585 38.6895 154.466 38.332 155.427 38.332C155.907 38.332 156.348 38.4114 156.788 38.5703C157.229 38.7292 157.629 39.0073 157.949 39.3251C158.59 39.9606 158.95 40.8346 158.95 41.7482C158.99 42.6221 158.63 43.496 157.949 44.1713ZM157.469 41.7085C157.469 41.1523 157.269 40.5962 156.908 40.199C156.748 40.0004 156.508 39.8415 156.268 39.7223C156.027 39.6031 155.747 39.5634 155.507 39.5634C155.227 39.5634 154.986 39.6031 154.706 39.7223C154.466 39.8415 154.226 40.0004 154.066 40.199C153.865 40.3976 153.705 40.6359 153.625 40.914C153.545 41.1921 153.505 41.4701 153.505 41.7482C153.505 42.3043 153.705 42.8605 154.066 43.2577C154.226 43.4563 154.466 43.6152 154.706 43.7344C154.946 43.8536 155.227 43.8933 155.467 43.8933C155.747 43.8933 155.987 43.8536 156.268 43.7344C156.508 43.6152 156.748 43.4563 156.908 43.2577C157.309 42.8207 157.509 42.2646 157.469 41.7085ZM164.956 38.4511H166.437V45.1247H164.956L161.753 40.9537V45.1247H160.272V38.4511H161.673L164.996 42.7413L164.956 38.4511Z" fill="white"></path><path d="M7.28605 37.1797H3.60254V45.76H12.2107V42.0657H7.28605V37.1797Z" fill="white"></path><path d="M25.8241 37.2194V42.0657H20.8594V45.76H29.4676V37.1797H25.744L25.8241 37.2194Z" fill="white"></path><path d="M3.60254 28.6389H7.32609L7.28605 28.5992V23.7529H12.2107V20.0586H3.60254V28.6389Z" fill="white"></path><path d="M20.8594 20.0586V23.7529H25.8241V28.6389H29.5076V20.0586H20.8594Z" fill="white"></path><path d="M20.3787 28.6389L15.454 23.7529H20.8592V20.0586H12.2109V23.7529L17.1356 28.6389H20.3787Z" fill="white"></path><path d="M15.9345 37.1797H12.6914L16.7753 41.2315L17.576 42.0657H12.2109V45.76H20.8592V42.026L18.3768 39.6028L15.9345 37.1797Z" fill="white"></path><path d="M25.8241 28.6387V33.9616L24.9833 33.1274L20.8594 29.0756V32.333L23.3017 34.7561L25.7841 37.219H29.5076V28.6387H25.8241Z" fill="white"></path><path d="M12.2107 33.485L7.32609 28.6387H3.60254V37.1793H7.28605V31.8563L12.2107 36.7423V33.485Z" fill="white"></path></svg>