<svg xmlns="http://www.w3.org/2000/svg" width="170" height="80" viewBox="0 0 170 80" fill="none"><path d="M41.0908 32.6621V72.1616L85.0004 62.829L128.91 72.1616V32.6621H41.0908Z" fill="white"></path><path d="M128.91 0H41.0908V30.7304H128.91V0Z" fill="white"></path><path d="M127.968 75.5072L128.91 75.7052V74.0233L127.968 73.8254L85.1721 64.8288L85.0006 64.793L42.3345 73.7713L41.0908 74.0329V75.7149L42.3345 75.4532L85.0006 66.4745L127.968 75.5072Z" fill="white"></path><g opacity="0.1"><path d="M128.91 72.1616V32.6621H85V62.829L128.91 72.1616Z" fill="white"></path><path d="M128.91 0H85V30.7304H128.91V0Z" fill="white"></path><path d="M85.0002 66.4745L127.968 75.5072L128.91 75.7052V74.0233L127.968 73.8254L85.1717 64.8288L85.0002 64.793L85 64.793V66.4745L85.0002 66.4745Z" fill="white"></path></g><path d="M77.5449 5.61914H81.0138V5.9713H79.4868V9.96441H79.072V5.97727H77.5449V5.61914Z" fill="black"></path><path d="M81.4229 5.61914H81.8377V7.50527H84.4348V5.61914H84.8496V9.96441H84.4348V7.8634H81.8377V9.96441H81.4229V5.61914Z" fill="black"></path><path d="M85.7394 5.61914H88.7634V5.9713H86.1602V7.54109H88.5951V7.89325H86.1542V9.60628H88.7875V9.96441H85.7334V5.61914H85.7394Z" fill="black"></path><path d="M77.5449 20.7441H80.3224V21.0963H77.9658V22.6661H80.0579V23.0182H77.9597V25.0894H77.5449V20.7441Z" fill="black"></path><path d="M82.6667 20.6543C84.0375 20.6543 84.7228 21.7227 84.7228 22.9165C84.7228 24.1102 84.0375 25.1786 82.6667 25.1786C81.29 25.1786 80.5986 24.1102 80.5986 22.9165C80.5986 21.7227 81.284 20.6543 82.6667 20.6543ZM82.6667 24.8265C83.821 24.8265 84.308 23.8655 84.308 22.9165C84.308 21.9674 83.815 21.0065 82.6667 21.0065C81.5064 21.0065 81.0195 21.9674 81.0195 22.9165C81.0195 23.8655 81.5064 24.8265 82.6667 24.8265Z" fill="black"></path><path d="M85.3301 20.7441H85.7449V23.4361C85.7449 24.4388 86.2138 24.8268 87.0254 24.8268C87.8431 24.8268 88.312 24.4388 88.312 23.4361V20.7441H88.7268V23.5256C88.7268 24.4209 88.2399 25.1789 87.0254 25.1789C85.817 25.1789 85.3301 24.4209 85.3301 23.5256L85.3301 20.7441Z" fill="black"></path><path d="M89.5684 20.7441H90.0313L92.5803 24.4209H92.5924V20.7441H93.0072V25.0894H92.5443L89.9952 21.4126H89.9832V25.0894H89.5684V20.7441Z" fill="black"></path><path d="M93.8916 20.7441H95.4066C96.7292 20.774 97.4146 21.4783 97.4146 22.9168C97.4146 24.3553 96.7292 25.0596 95.4066 25.0894H93.8916V20.7441ZM94.3064 24.7373H95.1962C96.4527 24.7373 96.9998 24.218 96.9998 22.9168C96.9998 21.6156 96.4527 21.0963 95.1962 21.0963H94.3064V24.7373Z" fill="black"></path><path d="M99.3681 20.7441H99.831L101.544 25.0894H101.1L100.564 23.7405H98.5745L98.0455 25.0894H97.6006L99.3681 20.7441ZM98.7068 23.3883H100.426L99.5785 21.162L98.7068 23.3883Z" fill="black"></path><path d="M101.058 20.7441H104.527V21.0963H102.999V25.0894H102.585V21.0963H101.058V20.7441Z" fill="black"></path><path d="M104.972 20.7441H105.387V25.0894H104.972V20.7441Z" fill="black"></path><path d="M108.134 20.6543C109.504 20.6543 110.19 21.7227 110.19 22.9165C110.19 24.1102 109.504 25.1786 108.134 25.1786C106.757 25.1786 106.065 24.1102 106.065 22.9165C106.065 21.7227 106.751 20.6543 108.134 20.6543ZM108.134 24.8265C109.288 24.8265 109.775 23.8655 109.775 22.9165C109.775 21.9674 109.282 21.0065 108.134 21.0065C106.973 21.0065 106.486 21.9674 106.486 22.9165C106.486 23.8655 106.973 24.8265 108.134 24.8265Z" fill="black"></path><path d="M110.833 20.7441H111.296L113.845 24.4209H113.857V20.7441H114.272V25.0894H113.809L111.26 21.4126H111.248V25.0894H110.833V20.7441Z" fill="black"></path><path d="M77.5451 11.2598H79.9559V17.0375H83.4187V19.0311H77.5391V11.2598H77.5451Z" fill="black"></path><path d="M85 11.2598H87.4108V19.0311H85V11.2598Z" fill="black"></path><path d="M89.208 11.2598H91.6729L93.9514 15.42H93.9755V11.2598H96.254V19.0311H93.9093L91.5106 14.7873H91.4865V19.0311H89.208V11.2598Z" fill="black"></path><path d="M105.17 16.0288C105.17 18.1955 104.021 19.2161 101.604 19.2161C99.1937 19.2161 98.0273 18.1955 98.0273 16.0288V11.2598H100.438V15.4916C100.438 16.2735 100.426 17.2763 101.61 17.2763C102.753 17.2763 102.753 16.2735 102.753 15.4916V11.2598H105.163V16.0288H105.17Z" fill="black"></path><path d="M109.005 14.8948L106.426 11.2598H109.258L110.442 13.3727L111.602 11.2598H114.278L111.771 14.9186L114.566 19.0311H111.663L110.328 16.7152L108.945 19.0311H106.18L109.005 14.8948Z" fill="black"></path><path opacity="0.8" d="M58.3911 21.1784V13.3652H54.4473V25.0879H66.2607V21.1784H58.3911Z" fill="black"></path><path d="M74.1243 5.54688H54.4473V11.4082H58.3851V9.47433H70.1925V21.1791H68.2266V25.0887H74.1243V5.54688Z" fill="black"></path><path d="M68.7179 45.7476C68.7179 45.2957 68.5462 44.9172 68.2027 44.6121C67.8593 44.307 67.2503 44.0505 66.3757 43.8426C65.318 43.5919 64.4925 43.2228 63.8997 42.7352C63.3066 42.2476 63.0101 41.6347 63.0101 40.8963C63.0101 40.1217 63.3295 39.4746 63.9683 38.9551C64.6071 38.4356 65.4348 38.1758 66.4513 38.1758C67.5456 38.1758 68.4168 38.4736 69.0648 39.0691C69.7126 39.6647 70.0252 40.3557 70.0023 41.1421L69.9886 41.1831H68.6973C68.6973 40.6012 68.5038 40.1306 68.1169 39.7715C67.7299 39.4124 67.1747 39.2328 66.4513 39.2328C65.7782 39.2328 65.2619 39.384 64.9025 39.6863C64.5429 39.9887 64.3632 40.383 64.3632 40.8694C64.3632 41.3013 64.5579 41.6616 64.9471 41.9503C65.3362 42.239 65.9681 42.4924 66.8428 42.7106C67.8959 42.9697 68.6973 43.3516 69.2468 43.8562C69.7963 44.3609 70.071 44.986 70.071 45.7315C70.071 46.5317 69.7413 47.175 69.0819 47.6613C68.4225 48.1479 67.5616 48.391 66.4994 48.391C65.501 48.391 64.6184 48.1216 63.8515 47.5829C63.0845 47.0442 62.7124 46.3248 62.7354 45.4246L62.7491 45.3838H64.0404C64.0404 46.0203 64.2762 46.5044 64.7479 46.8363C65.2195 47.1682 65.8033 47.334 66.4994 47.334C67.1816 47.334 67.722 47.1917 68.1203 46.907C68.5187 46.6223 68.7179 46.2358 68.7179 45.7476Z" fill="black"></path><path d="M73.4176 48.2471H72.0576V38.3184H73.4176V48.2471Z" fill="black"></path><path d="M77.2116 47.1902H81.944V48.2471H75.8584V38.3184H77.2116V47.1902Z" fill="black"></path><path d="M85.3904 45.7785L85.617 46.5628H85.6582L85.8848 45.7785L88.4674 38.3184H89.9304L86.2146 48.2471H85.0538L81.3379 38.3184H82.8078L85.3904 45.7785Z" fill="black"></path><path d="M97.4774 43.6442H92.8961V47.1902H98.178V48.2471H91.543V38.3184H98.1025V39.3753H92.8961V42.5871H97.4774V43.6442Z" fill="black"></path><path d="M101.234 43.9452V48.2481H99.8809V38.3262H103.501C104.595 38.3262 105.431 38.5671 106.008 39.049C106.585 39.5309 106.873 40.231 106.873 41.1493C106.873 41.6585 106.739 42.1018 106.471 42.4791C106.203 42.8564 105.813 43.1565 105.3 43.3792C105.85 43.5565 106.245 43.844 106.485 44.2418C106.725 44.6396 106.846 45.1317 106.846 45.7182V46.6524C106.846 46.9616 106.88 47.2389 106.949 47.4843C107.017 47.7299 107.136 47.93 107.306 48.0845V48.2481H105.911C105.733 48.0936 105.618 47.8662 105.568 47.5662C105.518 47.2662 105.492 46.957 105.492 46.6388V45.7318C105.492 45.1954 105.335 44.7634 105.019 44.4362C104.703 44.1089 104.279 43.9452 103.748 43.9452H101.234ZM101.234 42.8882H103.363C104.128 42.8882 104.679 42.7442 105.015 42.456C105.352 42.1679 105.52 41.7289 105.52 41.139C105.52 40.5809 105.356 40.1488 105.029 39.8426C104.701 39.5364 104.192 39.3831 103.501 39.3831H101.234V42.8882Z" fill="black"></path><path d="M68.8736 52.3652L70.777 57.1833H70.8016L72.705 52.3652H73.7388V58.2951H72.9306V55.9492L73.0127 53.5382L72.9921 53.5341L71.056 58.2951H70.5185L68.5905 53.5463L68.5701 53.5504L68.648 55.9492V58.2951H67.8398V52.3652H68.8736Z" fill="black"></path><path d="M78.764 55.5461H76.0279V57.6638H79.1824V58.2951H75.2197V52.3652H79.1373V52.9965H76.0279V54.9148H78.764V55.5461Z" fill="black"></path><path d="M81.1636 52.3652L83.0671 57.1833H83.0916L84.9951 52.3652H86.0288V58.2951H85.2206V55.9492L85.3027 53.5382L85.2822 53.5341L83.346 58.2951H82.8086L80.8805 53.5463L80.8601 53.5504L80.938 55.9492V58.2951H80.1299V52.3652H81.1636Z" fill="black"></path><path d="M87.5098 58.2951V52.3652H89.4583C90.0818 52.3652 90.57 52.499 90.9228 52.7664C91.2755 53.0339 91.4519 53.4351 91.4519 53.9699C91.4519 54.2333 91.3672 54.4688 91.1976 54.6765C91.028 54.8842 90.8051 55.0383 90.5289 55.1388C90.8899 55.2148 91.1736 55.3899 91.3801 55.6642C91.5866 55.9384 91.6899 56.2574 91.6899 56.6212C91.6899 57.1643 91.5127 57.579 91.1586 57.8654C90.8044 58.1519 90.3239 58.2951 89.7167 58.2951H87.5098ZM88.3179 54.8863H89.6265C89.9273 54.8863 90.172 54.8042 90.3607 54.6399C90.5495 54.4756 90.6438 54.2468 90.6438 53.9537C90.6438 53.6333 90.5419 53.3936 90.3382 53.2348C90.1345 53.076 89.8412 52.9965 89.4583 52.9965H88.3179V54.8863ZM88.3179 55.5175V57.6638H89.7167C90.0832 57.6638 90.369 57.5739 90.574 57.394C90.7792 57.2142 90.8817 56.9592 90.8817 56.6292C90.8817 56.2831 90.7962 56.0112 90.6253 55.8137C90.4544 55.6163 90.1912 55.5175 89.8357 55.5175H88.3179Z" fill="black"></path><path d="M96.4231 55.5461H93.6871V57.6638H96.8416V58.2951H92.8789V52.3652H96.7965V52.9965H93.6871V54.9148H96.4231V55.5461Z" fill="black"></path><path d="M98.5982 55.7251V58.2949H97.79V52.3691H99.9519C100.605 52.3691 101.105 52.5131 101.449 52.8009C101.794 53.0887 101.966 53.5068 101.966 54.0552C101.966 54.3593 101.886 54.6241 101.726 54.8494C101.566 55.0748 101.333 55.254 101.027 55.387C101.355 55.4929 101.591 55.6647 101.734 55.9022C101.878 56.1398 101.95 56.4337 101.95 56.784V57.3419C101.95 57.5266 101.97 57.6921 102.011 57.8388C102.052 57.9854 102.123 58.1049 102.224 58.1971V58.2949H101.392C101.285 58.2027 101.217 58.0669 101.187 57.8877C101.156 57.7084 101.142 57.5239 101.142 57.3338V56.7921C101.142 56.4718 101.047 56.2138 100.858 56.0183C100.67 55.8228 100.417 55.7251 100.1 55.7251H98.5982ZM98.5982 55.0938H99.8698C100.326 55.0938 100.655 55.0078 100.856 54.8357C101.057 54.6636 101.158 54.4014 101.158 54.0491C101.158 53.7158 101.06 53.4577 100.865 53.2748C100.669 53.0919 100.365 53.0004 99.9519 53.0004H98.5982V55.0938Z" fill="black"></path></svg>